# xmcd CD database file
#
# Track frame offsets:
#	182
#	17002
#	47775
#	73882
#	86265
#	109142
#	116222
#	142965
#	161625
#	209185
#	253342
#
# Disc length: 3675 seconds
#
# Revision: 1
# Processed by: cddbd v1.4PL0 Copyright (c) Steve Scherf et al.
# Submitted via: CDex 1.40Release
#
DISCID=a60e590b
DTITLE=Ten Years After - Live 1990
DYEAR=1990
DGENRE=Blues
TTITLE0=Let's Shake It Up
TTITLE1=Good Morning Little Schoolgirl
TTITLE2=Slow Blues In C
TTITLE3=Hobbit
TTITLE4=Love Like A Man
TTITLE5=Johnny B. Goode
TTITLE6=Bad Blood
TTITLE7=Victim Of Circumstance
TTITLE8=I Can't Keep From Crying
TTITLE9=I'm Goin' Home
TTITLE10=Sweet Little Sixteen
EXTD=ARD Demon Records Ninety 3 YEAR: 1990 ID3G: 0
EXTT0=
EXTT1=
EXTT2=
EXTT3=
EXTT4=
EXTT5=
EXTT6=
EXTT7=
EXTT8=
EXTT9=
EXTT10=
PLAYORDER=
